# xmcd CD database file
#
# Track frame offsets:
#	150
#	12170
#	24643
#	36959
#	51324
#	63340
#	78571
#	91782
#	104698
#	118458
#	133027
#	144465
#	158617
#	173960
#	191967
#	203621
#	216256
#
# Disc length: 3096 seconds
#
# Revision: 0
# Processed by: cddbd v1.5.2PL0 Copyright (c) Steve Scherf et al.
# Submitted via: CDex 1.60beta1
#
DISCID=f80c1611
DTITLE=Various Artist - Easy Lounge CD 2
DYEAR=1900
DGENRE=Jazz
TTITLE0=Louis Armstrong - Swing you cats
TTITLE1=Duke Ellington and  His Famous Orchestra - Saratoga swing
TTITLE2=Nat King Cole - Naughty Angeline
TTITLE3=Bing Crosby -  Love in bloom
TTITLE4=Dean Martin -  Gentle on my mind
TTITLE5=Earl Hines and His Orchestra - Fat babes
TTITLE6=Gene Pitney - Moulin Rouge
TTITLE7=Frank Sinatra - Young at heart
TTITLE8=Dean Martin - When you're smiling
TTITLE9=Tommy Dorsey and His Orchestra - Swing high
TTITLE10=Nat King Cole - Makin' Whopee
TTITLE11=Ray Charles - One Mint Julep
TTITLE12=Frank Sinatra - In the still of the night
TTITLE13=Dean Martin - Honey
TTITLE14=Perry Como - They say it's wonderful
TTITLE15=Gene Pitney - Misty
TTITLE16=Louis Armstrong - Stardust
EXTD=
EXTT0=
EXTT1=
EXTT2=
EXTT3=
EXTT4=
EXTT5=
EXTT6=
EXTT7=
EXTT8=
EXTT9=
EXTT10=
EXTT11=
EXTT12=
EXTT13=
EXTT14=
EXTT15=
EXTT16=
PLAYORDER=
